<svg xmlns="http://www.w3.org/2000/svg" xmlns:xlink="http://www.w3.org/1999/xlink" width="600" zoomAndPan="magnify" viewBox="0 0 450 149.999998" height="200" preserveAspectRatio="xMidYMid meet" version="1.0"><defs><clipPath id="b7d52c61c9"><path d="M 0 32.269531 L 89.804688 32.269531 L 89.804688 117.730469 L 0 117.730469 Z M 0 32.269531 " clip-rule="nonzero"/></clipPath><clipPath id="abfc911c51"><path d="M 44.832031 32.269531 L 55.417969 64.914062 L 89.667969 64.914062 L 61.957031 85.085938 L 72.542969 117.730469 L 44.832031 97.554688 L 17.125 117.730469 L 27.707031 85.085938 L 0 64.914062 L 34.25 64.914062 Z M 44.832031 32.269531 " clip-rule="nonzero"/></clipPath><clipPath id="add6a4a887"><path d="M 179.332031 32.269531 L 269 32.269531 L 269 117.730469 L 179.332031 117.730469 Z M 179.332031 32.269531 " clip-rule="nonzero"/></clipPath><clipPath id="dd6400df67"><path d="M 224.167969 32.269531 L 234.75 64.914062 L 269 64.914062 L 241.292969 85.085938 L 251.875 117.730469 L 224.167969 97.554688 L 196.457031 117.730469 L 207.042969 85.085938 L 179.332031 64.914062 L 213.582031 64.914062 Z M 224.167969 32.269531 " clip-rule="nonzero"/></clipPath><clipPath id="60e2ae2d5a"><path d="M 269 32.269531 L 358.804688 32.269531 L 358.804688 117.730469 L 269 117.730469 Z M 269 32.269531 " clip-rule="nonzero"/></clipPath><clipPath id="69078f5f70"><path d="M 313.832031 32.269531 L 324.417969 64.914062 L 358.667969 64.914062 L 330.957031 85.085938 L 341.542969 117.730469 L 313.832031 97.554688 L 286.125 117.730469 L 296.707031 85.085938 L 269 64.914062 L 303.25 64.914062 Z M 313.832031 32.269531 " clip-rule="nonzero"/></clipPath><clipPath id="57e205ce12"><path d="M 89.667969 32.269531 L 179.46875 32.269531 L 179.46875 117.730469 L 89.667969 117.730469 Z M 89.667969 32.269531 " clip-rule="nonzero"/></clipPath><clipPath id="35841a268d"><path d="M 134.5 32.269531 L 145.082031 64.914062 L 179.332031 64.914062 L 151.625 85.085938 L 162.207031 117.730469 L 134.5 97.554688 L 106.792969 117.730469 L 117.375 85.085938 L 89.667969 64.914062 L 123.917969 64.914062 Z M 134.5 32.269531 " clip-rule="nonzero"/></clipPath><clipPath id="d16e5fa189"><path d="M 358.667969 32.269531 L 448.46875 32.269531 L 448.46875 117.730469 L 358.667969 117.730469 Z M 358.667969 32.269531 " clip-rule="nonzero"/></clipPath><clipPath id="8009d0ea5a"><path d="M 403.5 32.269531 L 414.082031 64.914062 L 448.332031 64.914062 L 420.625 85.085938 L 431.207031 117.730469 L 403.5 97.554688 L 375.792969 117.730469 L 386.375 85.085938 L 358.667969 64.914062 L 392.917969 64.914062 Z M 403.5 32.269531 " clip-rule="nonzero"/></clipPath></defs><g clip-path="url(#b7d52c61c9)"><g clip-path="url(#abfc911c51)"><path fill="#e090a0" d="M 0 32.269531 L 89.804688 32.269531 L 89.804688 117.730469 L 0 117.730469 Z M 0 32.269531 " fill-opacity="1" fill-rule="nonzero"/></g></g><g clip-path="url(#add6a4a887)"><g clip-path="url(#dd6400df67)"><path fill="#e090a0" d="M 179.332031 32.269531 L 269.136719 32.269531 L 269.136719 117.730469 L 179.332031 117.730469 Z M 179.332031 32.269531 " fill-opacity="1" fill-rule="nonzero"/></g></g><g clip-path="url(#60e2ae2d5a)"><g clip-path="url(#69078f5f70)"><path fill="#e090a0" d="M 269 32.269531 L 358.804688 32.269531 L 358.804688 117.730469 L 269 117.730469 Z M 269 32.269531 " fill-opacity="1" fill-rule="nonzero"/></g></g><g clip-path="url(#57e205ce12)"><g clip-path="url(#35841a268d)"><path fill="#e090a0" d="M 89.667969 32.269531 L 179.46875 32.269531 L 179.46875 117.730469 L 89.667969 117.730469 Z M 89.667969 32.269531 " fill-opacity="1" fill-rule="nonzero"/></g></g><g clip-path="url(#d16e5fa189)"><g clip-path="url(#8009d0ea5a)"><path fill="#e090a0" d="M 358.667969 32.269531 L 448.46875 32.269531 L 448.46875 117.730469 L 358.667969 117.730469 Z M 358.667969 32.269531 " fill-opacity="1" fill-rule="nonzero"/></g></g></svg>