<svg xmlns="http://www.w3.org/2000/svg" xmlns:xlink="http://www.w3.org/1999/xlink" width="500" zoomAndPan="magnify" viewBox="0 0 375 374.999991" height="500" preserveAspectRatio="xMidYMid meet" version="1.0"><path fill="#ffc7c7" d="M 214.945312 132.578125 C 296.871094 -9.164062 78.402344 -9.164062 160.328125 132.578125 C 78.402344 -9.164062 -30.832031 179.824219 133.019531 179.824219 C -30.832031 179.824219 78.402344 368.8125 160.328125 227.070312 C 78.402344 368.8125 296.871094 368.8125 214.945312 227.070312 C 296.871094 368.8125 406.109375 179.824219 242.253906 179.824219 C 406.109375 179.824219 296.871094 -9.164062 214.945312 132.578125 Z M 214.945312 132.578125 " fill-opacity="1" fill-rule="nonzero"/><path fill="#ff8888" d="M 227.402344 179.824219 C 227.402344 181.125 227.339844 182.421875 227.210938 183.71875 C 227.082031 185.011719 226.890625 186.296875 226.636719 187.574219 C 226.382812 188.847656 226.066406 190.109375 225.691406 191.355469 C 225.3125 192.597656 224.875 193.824219 224.375 195.023438 C 223.878906 196.226562 223.320312 197.402344 222.707031 198.546875 C 222.09375 199.695312 221.425781 200.808594 220.699219 201.890625 C 219.976562 202.972656 219.203125 204.015625 218.375 205.023438 C 217.550781 206.027344 216.675781 206.992188 215.753906 207.910156 C 214.835938 208.832031 213.871094 209.703125 212.863281 210.527344 C 211.859375 211.351562 210.8125 212.128906 209.730469 212.851562 C 208.648438 213.574219 207.53125 214.242188 206.382812 214.855469 C 205.234375 215.46875 204.058594 216.023438 202.855469 216.519531 C 201.652344 217.019531 200.425781 217.457031 199.179688 217.832031 C 197.933594 218.210938 196.671875 218.527344 195.394531 218.78125 C 194.117188 219.035156 192.832031 219.226562 191.535156 219.351562 C 190.238281 219.480469 188.941406 219.542969 187.636719 219.542969 C 186.335938 219.542969 185.035156 219.480469 183.738281 219.351562 C 182.445312 219.226562 181.15625 219.035156 179.878906 218.78125 C 178.601562 218.527344 177.339844 218.210938 176.09375 217.832031 C 174.847656 217.457031 173.625 217.019531 172.421875 216.519531 C 171.21875 216.023438 170.042969 215.46875 168.894531 214.855469 C 167.746094 214.242188 166.628906 213.574219 165.546875 212.851562 C 164.464844 212.128906 163.417969 211.351562 162.410156 210.527344 C 161.40625 209.703125 160.441406 208.832031 159.519531 207.910156 C 158.597656 206.992188 157.726562 206.027344 156.898438 205.023438 C 156.074219 204.015625 155.296875 202.972656 154.574219 201.890625 C 153.851562 200.808594 153.183594 199.695312 152.570312 198.546875 C 151.953125 197.402344 151.398438 196.226562 150.898438 195.023438 C 150.402344 193.824219 149.964844 192.597656 149.585938 191.355469 C 149.207031 190.109375 148.890625 188.847656 148.636719 187.574219 C 148.382812 186.296875 148.191406 185.011719 148.066406 183.71875 C 147.9375 182.421875 147.875 181.125 147.875 179.824219 C 147.875 178.523438 147.9375 177.226562 148.066406 175.929688 C 148.191406 174.636719 148.382812 173.351562 148.636719 172.074219 C 148.890625 170.800781 149.207031 169.539062 149.585938 168.292969 C 149.964844 167.050781 150.402344 165.824219 150.898438 164.625 C 151.398438 163.421875 151.953125 162.246094 152.570312 161.101562 C 153.183594 159.953125 153.851562 158.839844 154.574219 157.757812 C 155.296875 156.675781 156.074219 155.632812 156.898438 154.625 C 157.726562 153.621094 158.597656 152.65625 159.519531 151.738281 C 160.441406 150.816406 161.40625 149.945312 162.410156 149.121094 C 163.417969 148.292969 164.464844 147.519531 165.546875 146.796875 C 166.628906 146.074219 167.746094 145.40625 168.894531 144.792969 C 170.042969 144.179688 171.21875 143.625 172.421875 143.128906 C 173.625 142.628906 174.847656 142.191406 176.09375 141.8125 C 177.339844 141.4375 178.601562 141.121094 179.878906 140.867188 C 181.15625 140.613281 182.445312 140.421875 183.738281 140.296875 C 185.035156 140.167969 186.335938 140.105469 187.636719 140.105469 C 188.941406 140.105469 190.238281 140.167969 191.535156 140.296875 C 192.832031 140.421875 194.117188 140.613281 195.394531 140.867188 C 196.671875 141.121094 197.933594 141.4375 199.179688 141.8125 C 200.425781 142.191406 201.652344 142.628906 202.855469 143.128906 C 204.058594 143.625 205.234375 144.179688 206.382812 144.792969 C 207.53125 145.40625 208.648438 146.074219 209.730469 146.796875 C 210.8125 147.519531 211.859375 148.292969 212.863281 149.121094 C 213.871094 149.945312 214.835938 150.816406 215.753906 151.738281 C 216.675781 152.65625 217.550781 153.621094 218.375 154.625 C 219.203125 155.632812 219.976562 156.675781 220.699219 157.757812 C 221.425781 158.839844 222.09375 159.953125 222.707031 161.101562 C 223.320312 162.246094 223.878906 163.421875 224.375 164.625 C 224.875 165.824219 225.3125 167.050781 225.691406 168.292969 C 226.066406 169.539062 226.382812 170.800781 226.636719 172.074219 C 226.890625 173.351562 227.082031 174.636719 227.210938 175.929688 C 227.339844 177.226562 227.402344 178.523438 227.402344 179.824219 Z M 227.402344 179.824219 " fill-opacity="1" fill-rule="nonzero"/></svg>