<svg xmlns="http://www.w3.org/2000/svg" xmlns:xlink="http://www.w3.org/1999/xlink" width="500" zoomAndPan="magnify" viewBox="0 0 375 374.999991" height="500" preserveAspectRatio="xMidYMid meet" version="1.0"><defs><g/><clipPath id="ab924361f7"><path d="M 92 50 L 278 50 L 278 153 L 92 153 Z M 92 50 " clip-rule="nonzero"/></clipPath><clipPath id="68a9460f13"><path d="M 99.015625 42.550781 L 288.199219 57.179688 L 275.707031 218.699219 L 86.523438 204.066406 Z M 99.015625 42.550781 " clip-rule="nonzero"/></clipPath><clipPath id="99d39ed42e"><path d="M 99.015625 42.550781 L 288.199219 57.179688 L 275.707031 218.699219 L 86.523438 204.066406 Z M 99.015625 42.550781 " clip-rule="nonzero"/></clipPath><clipPath id="9b16de0763"><path d="M 99.015625 42.550781 L 288.199219 57.179688 L 275.707031 218.699219 L 86.523438 204.066406 Z M 99.015625 42.550781 " clip-rule="nonzero"/></clipPath><clipPath id="f8fc352da9"><path d="M 89 120 L 283 120 L 283 210 L 89 210 Z M 89 120 " clip-rule="nonzero"/></clipPath><clipPath id="3d80570dc4"><path d="M 99.015625 42.550781 L 288.199219 57.179688 L 275.707031 218.699219 L 86.523438 204.066406 Z M 99.015625 42.550781 " clip-rule="nonzero"/></clipPath><clipPath id="0367c282f7"><path d="M 99.015625 42.550781 L 288.199219 57.179688 L 275.707031 218.699219 L 86.523438 204.066406 Z M 99.015625 42.550781 " clip-rule="nonzero"/></clipPath><clipPath id="12908e6a9d"><path d="M 99.015625 42.550781 L 288.199219 57.179688 L 275.707031 218.699219 L 86.523438 204.066406 Z M 99.015625 42.550781 " clip-rule="nonzero"/></clipPath></defs><rect x="-37.5" width="450" fill="#ffffff" y="-37.499999" height="449.999989" fill-opacity="1"/><rect x="-37.5" width="450" fill="#faf9f9" y="-37.499999" height="449.999989" fill-opacity="1"/><g clip-path="url(#ab924361f7)"><g clip-path="url(#68a9460f13)"><g clip-path="url(#99d39ed42e)"><g clip-path="url(#9b16de0763)"><path fill="#ea95a6" d="M 122.707031 86.386719 C 122.539062 85.503906 122.363281 84.625 122.214844 83.738281 C 122.109375 83.070312 121.839844 82.316406 122.054688 81.757812 C 122.199219 81.382812 123.0625 81.285156 123.765625 81 C 123.710938 80.871094 123.386719 80.410156 123.484375 80.285156 C 125.664062 77.570312 127.679688 74.675781 130.164062 72.265625 C 132.238281 70.25 134.8125 68.738281 137.261719 67.140625 C 139.003906 66.003906 140.519531 63.851562 143.15625 65.453125 C 143.488281 65.652344 144.433594 65.035156 144.976562 64.636719 C 146.960938 63.191406 147.195312 63.199219 149.210938 63.941406 C 149.882812 64.195312 151.246094 64.203125 151.433594 63.859375 C 152.304688 62.265625 153.65625 62.800781 154.878906 62.777344 C 155.910156 62.765625 157.03125 62.640625 157.949219 62.988281 C 158.792969 63.304688 159.417969 64.1875 160.347656 65.003906 C 162.726562 61.335938 166.230469 64.058594 169.5625 63.617188 C 169.691406 63.042969 169.878906 62.226562 170.0625 61.414062 C 170.226562 61.546875 170.386719 61.683594 170.550781 61.816406 C 171.167969 61.171875 171.710938 60.429688 172.425781 59.921875 C 173.015625 59.507812 173.785156 59.316406 174.507812 59.136719 C 175.328125 58.929688 176.179688 58.84375 176.726562 58.382812 C 177.445312 57.582031 178.015625 56.449219 178.910156 56.050781 C 180.917969 55.152344 183.089844 54.640625 185.179688 53.929688 C 186.183594 53.585938 187.128906 53 188.152344 52.78125 C 189.863281 52.414062 191.617188 52.277344 193.34375 51.988281 C 193.75 51.917969 194.1875 51.671875 194.496094 51.386719 C 195.859375 50.117188 197.191406 50.152344 198.613281 51.28125 C 198.820312 51.441406 199.300781 51.210938 199.582031 51.324219 C 201.402344 52.042969 203.128906 50.675781 204.847656 51.074219 C 205.75 51.285156 206.492188 52.1875 207.558594 52.957031 C 209.410156 52.421875 210.28125 53.128906 209.964844 55.574219 C 209.847656 56.484375 209.414062 57.367188 209.058594 58.238281 C 206.890625 63.601562 204.359375 68.847656 202.625 74.34375 C 201.117188 79.117188 200.496094 84.179688 199.488281 89.113281 C 199.742188 89.226562 200.007812 89.339844 200.265625 89.457031 C 200.546875 89.105469 200.996094 88.792969 201.078125 88.410156 C 201.859375 84.699219 202.554688 80.964844 203.339844 77.25 C 203.601562 75.996094 203.984375 74.761719 204.445312 73.566406 C 206.621094 67.828125 208.753906 62.0625 211.128906 56.402344 C 211.566406 55.359375 213.035156 54.761719 214.167969 53.847656 C 214.808594 54.800781 215.40625 55.6875 216.082031 56.695312 C 216.273438 56.496094 216.660156 56.078125 216.859375 55.859375 C 217.726562 56.335938 218.460938 56.742188 219.417969 57.265625 C 219.414062 57.242188 219.363281 57.628906 219.492188 57.949219 C 219.664062 58.390625 219.976562 58.777344 220.226562 59.1875 C 220.585938 58.964844 221.09375 58.828125 221.28125 58.5 C 222.214844 56.914062 223.113281 57.15625 224.09375 58.410156 C 223.742188 59.152344 223.40625 59.863281 223.070312 60.578125 C 223.214844 60.660156 223.355469 60.746094 223.5 60.824219 C 224.074219 60.148438 224.644531 59.46875 225.523438 58.429688 C 226 59.730469 226.367188 60.726562 226.8125 61.945312 C 227.28125 61.226562 227.652344 60.664062 228.003906 60.121094 C 228.746094 60.785156 229.355469 61.332031 230.113281 62.007812 C 229.992188 62.609375 229.832031 63.425781 229.652344 64.328125 C 232.496094 63.003906 233.867188 63.738281 233.933594 66.480469 C 237 67.160156 237 67.160156 237.195312 70.792969 C 237.480469 69.816406 237.761719 68.84375 238.078125 67.761719 C 239.535156 69.578125 240.875 71.242188 242.210938 72.90625 C 242.363281 72.785156 242.507812 72.671875 242.65625 72.550781 C 242.710938 73.199219 242.761719 73.84375 242.828125 74.660156 C 245.042969 74.234375 245.207031 75.929688 245.511719 77.445312 C 247.664062 76.269531 248.375 77.027344 248.59375 80.820312 C 248.960938 80.183594 249.214844 79.753906 249.757812 78.804688 C 250.316406 81.746094 254.457031 82.164062 253.335938 85.628906 C 252.75 87.421875 251.730469 89.074219 251.050781 90.84375 C 250.390625 92.578125 249.886719 94.371094 249.402344 96.164062 C 249.34375 96.378906 249.832031 96.742188 249.824219 96.730469 C 251.515625 92.933594 253.222656 89.121094 254.894531 85.367188 C 255.910156 86.164062 256.5 86.847656 257.238281 87.15625 C 258.828125 87.808594 259.453125 89.109375 258.753906 90.769531 C 258.289062 91.882812 257.808594 93 257.332031 94.113281 C 257.574219 94.222656 257.820312 94.332031 258.0625 94.433594 C 258.777344 92.902344 259.492188 91.363281 260.117188 90.019531 C 261.617188 90.921875 263.242188 91.625 264.472656 92.761719 C 265.011719 93.261719 264.878906 94.660156 264.78125 95.628906 C 264.6875 96.566406 264.257812 97.46875 263.972656 98.390625 C 264.195312 98.5 264.410156 98.613281 264.632812 98.722656 C 265.085938 97.832031 265.5625 96.953125 265.988281 96.042969 C 266.269531 95.441406 266.4375 94.300781 266.730469 94.277344 C 267.402344 94.21875 268.136719 94.652344 268.8125 94.960938 C 270.722656 95.847656 270.269531 96.847656 269.425781 98.507812 C 267.898438 101.507812 266.925781 104.78125 265.746094 107.957031 C 265.667969 108.167969 265.773438 108.449219 265.8125 108.835938 C 267.902344 106.550781 269.992188 104.523438 271.757812 102.25 C 273.167969 100.4375 274.648438 100.945312 276.203125 101.601562 C 277.914062 102.332031 277.425781 103.796875 276.921875 104.964844 C 275.339844 108.632812 273.492188 112.117188 269.722656 114.125 C 269.015625 114.5 268.664062 115.535156 268.121094 116.246094 C 267.917969 116.507812 267.667969 116.855469 267.386719 116.914062 C 265.171875 117.375 262.945312 117.773438 260.648438 117.800781 C 261.90625 117.394531 263.171875 116.996094 264.429688 116.589844 C 260.980469 116.648438 257.917969 116.042969 255.273438 113.242188 C 254.496094 113.496094 253.320312 113.882812 251.773438 114.390625 C 252.167969 113.414062 252.386719 112.878906 252.417969 112.808594 C 251.21875 112.871094 249.925781 112.90625 248.636719 113.023438 C 247.941406 113.082031 247.09375 113.066406 246.59375 113.449219 C 244.164062 115.320312 241.3125 116.167969 238.476562 117.039062 C 237.007812 117.492188 235.449219 117.632812 233.933594 117.914062 C 233.8125 117.699219 233.695312 117.488281 233.574219 117.277344 C 233.976562 117.070312 234.378906 116.855469 234.789062 116.644531 C 234.675781 116.496094 234.5625 116.339844 234.445312 116.1875 C 232.925781 117.40625 231.40625 118.628906 229.882812 119.847656 C 229.632812 119.554688 229.378906 119.257812 229.128906 118.96875 C 230.625 117.777344 232.070312 116.519531 233.652344 115.460938 C 234.03125 115.203125 234.859375 115.710938 235.476562 115.683594 C 236.089844 115.65625 236.695312 115.398438 237.308594 115.242188 C 239.226562 116.5 240.742188 115.910156 242.457031 113.816406 C 240.789062 113.609375 239.515625 113.449219 238.242188 113.292969 C 238.222656 113.488281 238.203125 113.683594 238.1875 113.878906 C 238.503906 114.09375 238.816406 114.304688 239.210938 114.570312 C 238.5 114.847656 237.921875 115.070312 237.347656 115.292969 C 237.058594 115.304688 236.59375 115.4375 236.503906 115.3125 C 234.585938 112.542969 232.972656 114.410156 231.300781 115.609375 C 231.128906 115.734375 230.890625 115.898438 230.722656 115.863281 C 228.4375 115.40625 226.167969 114.910156 223.886719 114.429688 C 222.792969 114.199219 221.695312 113.976562 220.480469 113.726562 C 220.460938 114.574219 220.445312 115.175781 220.429688 115.9375 C 218.863281 114.15625 218.851562 113.574219 220.300781 105.289062 C 220.925781 101.722656 221.628906 98.167969 221.878906 94.378906 C 221.496094 95.113281 220.964844 95.808594 220.753906 96.59375 C 220.359375 98.050781 220.019531 99.546875 219.882812 101.050781 C 219.410156 106.117188 216.484375 109.738281 212.953125 112.964844 C 212.078125 113.773438 210.761719 114.09375 209.96875 114.488281 C 208.753906 114.207031 207.578125 114.148438 206.613281 113.667969 C 204.957031 112.84375 203.433594 111.769531 201.871094 110.773438 C 201.570312 110.582031 201.394531 110.140625 201.085938 110.03125 C 197.644531 108.8125 198.292969 105.941406 198.84375 103.550781 C 199.277344 101.667969 199.386719 100.277344 198.402344 98.460938 C 196.152344 94.320312 196.613281 89.644531 196.535156 84.667969 C 194.273438 89.402344 197.113281 94.152344 195.472656 98.75 C 194.492188 98.113281 193.742188 97.625 192.992188 97.136719 C 192.820312 97.308594 192.65625 97.472656 192.488281 97.644531 C 193.757812 98.851562 195.03125 100.050781 196.289062 101.269531 C 196.617188 101.582031 197.105469 101.941406 197.132812 102.308594 C 197.402344 105.582031 198.25 108.957031 195.535156 111.96875 C 194.75 111.910156 193.71875 111.828125 192.488281 111.734375 C 192.617188 112.289062 192.726562 112.753906 192.886719 113.414062 C 191.21875 112.964844 189.738281 112.570312 188.046875 112.117188 C 187.707031 111.496094 187.207031 110.59375 186.464844 109.242188 C 186.246094 109.816406 186.097656 110.203125 185.949219 110.589844 C 185.71875 110.53125 185.492188 110.476562 185.261719 110.414062 C 184.253906 107.007812 183.160156 103.621094 182.246094 100.1875 C 181.316406 96.703125 180.550781 93.164062 179.714844 89.652344 C 179.535156 89.6875 179.355469 89.714844 179.171875 89.746094 C 179.566406 92.710938 180.101562 95.660156 180.320312 98.636719 C 180.558594 101.882812 180.574219 105.144531 180.53125 108.398438 C 180.519531 109.273438 179.941406 110.140625 179.195312 110.921875 C 179.445312 111.707031 179.695312 112.488281 180.128906 113.847656 C 179.265625 113.09375 178.863281 112.746094 178.242188 112.203125 C 176.269531 114.199219 174.214844 116.160156 172.304688 118.25 C 169.964844 120.808594 166.15625 121.144531 163.417969 119.046875 C 160.835938 117.066406 158.128906 115.238281 155.476562 113.339844 C 155.28125 113.550781 155.085938 113.761719 154.890625 113.976562 C 155.757812 115.039062 156.59375 116.125 157.5 117.152344 C 159.691406 119.621094 160.953125 122.488281 161.222656 125.78125 C 161.261719 126.316406 161.273438 127.121094 160.957031 127.382812 C 159.6875 128.433594 158.113281 129.164062 158.195312 131.207031 C 158.199219 131.34375 157.550781 131.585938 157.183594 131.636719 C 156.460938 131.738281 155.71875 131.738281 154.539062 131.808594 C 155.183594 132.511719 155.472656 132.824219 155.816406 133.199219 C 155.625 133.304688 155.453125 133.484375 155.292969 133.476562 C 153.960938 133.410156 152.695312 133.363281 151.960938 134.878906 C 151.804688 135.207031 151.054688 135.460938 150.628906 135.398438 C 149.390625 135.230469 148.523438 135.375 148.121094 136.78125 C 148.023438 137.136719 147.253906 137.359375 146.753906 137.523438 C 145.710938 137.875 144.625 138.105469 143.585938 138.453125 C 142.632812 138.773438 141.710938 139.183594 140.695312 139.378906 C 137.539062 143.445312 132.664062 143.613281 127.96875 144.609375 C 127.710938 143.605469 127.480469 142.226562 126.523438 143.058594 C 124.953125 142.21875 123.761719 141.367188 122.429688 140.929688 C 120.332031 140.238281 118 140.140625 116.035156 139.214844 C 113.746094 138.136719 111.765625 136.417969 109.621094 135.019531 C 108.542969 134.3125 107.398438 133.703125 106.019531 133.28125 C 106.804688 134.269531 107.589844 135.257812 108.300781 136.15625 C 107.691406 136.765625 107.226562 137.578125 106.566406 137.789062 C 105.824219 138.03125 104.90625 137.730469 103.332031 137.609375 C 104.441406 138.246094 104.996094 138.707031 105.636719 138.898438 C 106.3125 139.101562 107.074219 139.148438 107.789062 139.101562 C 112.84375 138.726562 117.273438 141.417969 122.136719 142.027344 C 122.691406 142.097656 123.175781 142.691406 123.667969 143.027344 C 123.167969 143.804688 122.777344 144.464844 122.320312 145.078125 C 122.171875 145.277344 121.773438 145.507812 121.621094 145.441406 C 118.902344 144.199219 118.753906 146.667969 117.792969 148.023438 C 117.386719 148.601562 116.785156 149.035156 116.140625 149.664062 C 115.957031 149.207031 115.804688 148.8125 115.558594 148.207031 C 113.902344 150.066406 112.183594 151.269531 109.949219 149.414062 C 109.210938 151.6875 106.605469 153.230469 104.128906 152.824219 C 102.257812 152.515625 100.429688 151.898438 98.550781 151.675781 C 96.476562 151.425781 95.875 149.441406 94.382812 148.335938 C 96.101562 148.207031 97.816406 148.082031 99.535156 147.953125 C 99.558594 147.855469 99.578125 147.753906 99.601562 147.65625 C 97.851562 147.304688 96.101562 146.949219 94.355469 146.601562 C 94.394531 146.347656 94.433594 146.09375 94.476562 145.839844 C 96.246094 146.089844 98.019531 146.347656 99.792969 146.601562 C 99.867188 146.472656 99.945312 146.339844 100.03125 146.210938 C 99.089844 145.65625 98.148438 145.105469 96.636719 144.21875 C 99.664062 144.261719 102.101562 144.292969 103.921875 144.3125 C 102.175781 143.605469 99.925781 142.699219 97.675781 141.792969 C 97.742188 141.539062 97.804688 141.292969 97.871094 141.042969 C 99.074219 141.371094 100.261719 141.804688 101.488281 142.003906 C 103.886719 142.390625 106.304688 142.652344 108.722656 142.964844 C 108.785156 142.617188 108.847656 142.277344 108.910156 141.933594 C 106.683594 141.476562 104.457031 141.039062 102.238281 140.542969 C 101.796875 140.445312 101.429688 140.070312 100.996094 139.890625 C 100.347656 139.625 99.691406 139.308594 99.015625 139.214844 C 97.226562 138.964844 95.386719 138.996094 93.65625 138.5625 C 93.035156 138.410156 92.671875 137.238281 92.191406 136.542969 C 92.644531 135.394531 93.082031 134.144531 93.625 132.941406 C 94.121094 131.832031 94.46875 130.382812 95.355469 129.796875 C 96.285156 129.179688 97.773438 129.421875 99.546875 129.230469 C 98.945312 128.824219 98.441406 128.484375 97.734375 128.015625 C 98.34375 127.710938 98.734375 127.519531 99.164062 127.308594 C 98.417969 126.542969 97.683594 125.789062 96.945312 125.03125 C 97.082031 124.878906 97.222656 124.726562 97.359375 124.570312 C 97.75 124.953125 98.144531 125.332031 98.609375 125.773438 C 98.96875 125.621094 99.558594 125.375 100.371094 125.035156 C 99.832031 124.667969 99.40625 124.378906 98.875 124.015625 C 99.167969 123.867188 99.5 123.703125 99.75 123.578125 C 99.625 122.550781 99.503906 121.546875 99.3125 120.011719 C 100.820312 120.921875 101.835938 121.53125 102.851562 122.144531 C 102.957031 121.988281 103.058594 121.828125 103.164062 121.667969 C 102.34375 120.960938 101.519531 120.246094 100.699219 119.539062 C 100.742188 119.394531 100.78125 119.257812 100.820312 119.113281 C 101.785156 119.1875 102.757812 119.261719 103.855469 119.347656 C 103.375 116.953125 103.519531 114.859375 105.351562 112.90625 C 106.132812 112.074219 105.929688 110.320312 106.453125 109.019531 C 106.355469 110.253906 106.261719 111.488281 106.167969 112.679688 C 106.988281 112.679688 107.683594 112.683594 108.9375 112.691406 C 108.445312 111.894531 107.96875 111.105469 107.4375 110.25 C 107.875 110.476562 108.351562 110.722656 108.945312 111.035156 C 109.3125 109.832031 109.671875 108.660156 110.152344 107.085938 C 109.488281 107.5 109.148438 107.710938 108.738281 107.964844 C 108.359375 106.761719 108.402344 105.933594 109.816406 105.382812 C 110.359375 105.167969 110.53125 104.097656 110.960938 103.480469 C 111.628906 102.523438 111.566406 101.570312 111.136719 100.566406 C 112.136719 100.328125 112.574219 99.542969 112.804688 98.667969 C 112.910156 98.269531 112.679688 97.777344 112.628906 97.480469 C 113.453125 96.351562 114.367188 95.160156 115.207031 93.925781 C 117.003906 91.289062 116.988281 91.277344 119.992188 90.875 C 119.296875 90.355469 118.757812 90.089844 118.429688 89.660156 C 118.15625 89.304688 117.90625 88.664062 118.054688 88.324219 C 118.1875 88.015625 118.851562 87.847656 119.308594 87.785156 C 119.886719 87.703125 120.496094 87.785156 121.09375 87.800781 C 120.722656 87.46875 120.011719 87.117188 120.035156 86.808594 C 120.09375 85.910156 120.445312 85.03125 121.238281 83.9375 C 121.738281 84.757812 122.246094 85.570312 122.746094 86.382812 C 122.980469 86.480469 123.304688 86.523438 123.433594 86.699219 C 125.21875 89.199219 127.101562 91.648438 128.707031 94.265625 C 129.621094 95.757812 130.070312 97.535156 130.730469 99.191406 C 131.324219 100.292969 131.96875 101.519531 132.875 102.492188 C 134.828125 104.597656 136.796875 106.726562 138.988281 108.570312 C 141.730469 110.875 144.671875 112.933594 147.597656 115 C 147.960938 115.253906 148.746094 114.902344 149.144531 114.855469 C 147.117188 113.5 145.257812 112.457031 143.648438 111.109375 C 141.957031 109.695312 140.644531 107.824219 138.925781 106.449219 C 135.535156 103.730469 133.054688 100.542969 131.984375 96.210938 C 131.5625 94.5 130.589844 92.804688 129.488281 91.414062 C 128.101562 89.667969 126.183594 88.359375 124.769531 86.628906 C 123.917969 85.632812 123.472656 85.628906 122.707031 86.386719 Z M 144.5 102.476562 C 145.460938 104.128906 146.425781 105.777344 147.390625 107.433594 C 147.671875 107.222656 147.957031 107.007812 148.242188 106.789062 C 146.980469 105.367188 145.71875 103.9375 144.453125 102.515625 C 143 98.671875 140.15625 94.480469 138.660156 94.503906 C 139.722656 96.171875 140.628906 97.746094 141.6875 99.203125 C 142.523438 100.371094 143.554688 101.390625 144.5 102.476562 Z M 186.738281 56.902344 C 186.449219 56.9375 186.15625 56.980469 185.863281 57.011719 C 185.738281 60.441406 185.671875 63.804688 187.082031 67.160156 C 187.863281 69.015625 188.429688 71.332031 188.035156 73.226562 C 187.3125 76.675781 187.605469 84.128906 189.558594 87.214844 C 189.492188 85.527344 189.121094 83.875 188.914062 82.199219 C 188.421875 78.324219 187.925781 74.34375 189.324219 70.652344 C 190.753906 66.871094 191.570312 63.027344 191.960938 59.066406 C 192.105469 57.574219 191.742188 56.027344 191.609375 54.507812 C 191.371094 54.511719 191.140625 54.519531 190.90625 54.523438 C 190.757812 58.519531 191.933594 62.910156 187.5 66.222656 C 187.222656 62.785156 186.980469 59.84375 186.738281 56.902344 Z M 217.832031 76.164062 C 217.578125 76.1875 217.328125 76.214844 217.074219 76.234375 C 216.589844 77.105469 215.984375 77.925781 215.644531 78.855469 C 214.179688 82.847656 212.589844 86.808594 211.476562 90.902344 C 210.933594 92.878906 210.910156 95.230469 211.449219 97.191406 C 212.140625 99.730469 212.136719 100.898438 209.9375 102.078125 C 208.628906 102.777344 207.269531 103.386719 205.449219 104.273438 C 207.140625 104.277344 208.691406 104.761719 209.492188 104.195312 C 212.316406 102.195312 214.234375 99.613281 213.4375 95.710938 C 212.90625 93.105469 212.523438 90.460938 213.859375 87.820312 C 215.394531 84.78125 216.65625 81.597656 217.90625 78.433594 C 218.160156 77.785156 217.871094 76.925781 217.832031 76.164062 Z M 128.515625 77.960938 C 128.363281 77.992188 128.210938 78.023438 128.054688 78.050781 C 128 78.457031 127.773438 78.917969 127.902344 79.246094 C 129.335938 82.996094 130.597656 86.835938 132.351562 90.433594 C 134.25 94.3125 136.59375 97.972656 138.820312 101.6875 C 139.113281 102.167969 139.832031 102.398438 140.347656 102.742188 C 140.453125 102.59375 140.550781 102.445312 140.65625 102.292969 C 136.609375 94.183594 132.5625 86.074219 128.515625 77.960938 Z M 119.074219 106.414062 C 119.632812 107.347656 120.035156 108.015625 120.4375 108.6875 C 121.738281 108.007812 122.613281 108.527344 123.441406 109.625 C 124.9375 111.613281 126.539062 113.515625 128.097656 115.457031 C 128.242188 115.332031 128.394531 115.199219 128.539062 115.074219 C 128.066406 114.253906 127.589844 113.429688 127.007812 112.421875 C 133.8125 113.417969 138.175781 118.199219 143.417969 121.4375 C 142.476562 120.230469 141.332031 119.3125 140.214844 118.367188 C 138.214844 116.675781 136.214844 114.984375 134.242188 113.269531 C 132.402344 111.671875 130.597656 110.035156 128.773438 108.414062 C 128.644531 108.550781 128.515625 108.6875 128.386719 108.824219 C 128.746094 109.632812 129.109375 110.4375 129.582031 111.511719 C 125.433594 110.746094 123.402344 106.433594 119.074219 106.414062 Z M 147.40625 98.65625 C 142.335938 91.875 138.265625 84.589844 135.972656 76.367188 C 135.695312 76.453125 135.410156 76.546875 135.132812 76.636719 C 135.617188 79.464844 136.105469 82.292969 136.589844 85.09375 C 136.128906 85.273438 135.339844 85.585938 134.378906 85.96875 C 135.863281 86.277344 137.132812 86.230469 137.96875 86.800781 C 138.773438 87.355469 139.117188 88.566406 139.683594 89.480469 C 141.804688 92.886719 144.027344 96.210938 147.40625 98.65625 Z M 143.445312 75.507812 C 142.066406 78.757812 151.660156 99.003906 156.109375 102.191406 C 151.15625 93.65625 145.847656 85.285156 143.445312 75.507812 Z M 198.28125 53.777344 C 195.273438 59.3125 194.988281 65.609375 193.179688 71.476562 C 195.351562 65.710938 199.238281 60.421875 198.28125 53.777344 Z M 224.324219 100.132812 C 226.75 100.320312 228.769531 100.507812 230.792969 100.605469 C 231.238281 100.628906 231.738281 100.40625 232.140625 100.171875 C 234.855469 98.546875 236.464844 96.09375 237.582031 92.796875 C 236.988281 93.125 236.632812 93.210938 236.4375 93.4375 C 235.390625 94.675781 234.449219 96.023438 233.339844 97.199219 C 231.59375 99.058594 229.269531 99.484375 227.058594 98.382812 C 226.28125 97.996094 225.566406 96.808594 224.75 97.960938 C 224.289062 98.621094 224.398438 99.691406 224.324219 100.132812 Z M 237.191406 91.796875 C 237.558594 92.109375 237.929688 92.414062 238.296875 92.726562 C 238.488281 92.34375 238.617188 91.902344 238.890625 91.59375 C 240.496094 89.78125 242.117188 87.976562 243.769531 86.203125 C 245.222656 84.644531 245.792969 81.484375 244.90625 80.101562 C 242.355469 83.972656 239.773438 87.886719 237.191406 91.796875 Z M 136.824219 133.367188 C 128.90625 132.347656 125.007812 125.441406 119.152344 121.40625 C 124.253906 126.554688 128.351562 133.144531 136.824219 133.367188 Z M 205.425781 59.378906 C 205.15625 59.28125 204.882812 59.179688 204.613281 59.082031 C 202.726562 63.140625 200.847656 67.207031 198.960938 71.269531 C 199.242188 71.394531 199.53125 71.523438 199.8125 71.652344 C 201.429688 67.441406 204.824219 64.046875 205.425781 59.378906 Z M 106.253906 148.609375 C 106.214844 148.367188 106.179688 148.117188 106.144531 147.871094 C 103.105469 145.742188 101.28125 148.828125 99 150.003906 C 101.417969 149.535156 103.835938 149.070312 106.253906 148.609375 Z M 176.789062 82.613281 C 178.128906 79.351562 177.292969 76.324219 175.722656 73.382812 C 176.082031 76.464844 176.433594 79.542969 176.789062 82.613281 Z M 106.785156 144.617188 C 109.574219 143.367188 112.035156 146.726562 115.046875 145.160156 C 112.808594 143.46875 108.507812 143.167969 106.785156 144.617188 Z M 174.824219 79.289062 C 174.71875 79.097656 174.605469 78.90625 174.5 78.710938 C 172.875 79.082031 171.175781 80.78125 169.726562 78.121094 C 169.597656 78.28125 169.472656 78.441406 169.34375 78.601562 C 169.878906 80.207031 170.414062 81.808594 170.945312 83.417969 C 171.175781 83.339844 171.414062 83.269531 171.644531 83.195312 C 171.453125 82.496094 171.265625 81.808594 171.101562 81.203125 C 172.414062 80.53125 173.621094 79.910156 174.824219 79.289062 Z M 162.378906 87.386719 C 162.625 87.335938 162.882812 87.28125 163.132812 87.234375 C 162.617188 84.40625 162.105469 81.574219 161.597656 78.75 C 161.300781 78.8125 161 78.871094 160.703125 78.933594 C 161.261719 81.746094 161.824219 84.566406 162.378906 87.386719 Z M 196.914062 78.558594 C 198.746094 77.265625 199.648438 73.664062 198.757812 71.914062 C 198.085938 74.324219 197.5 76.441406 196.914062 78.558594 Z M 220.332031 90.640625 C 223.371094 88.738281 222.84375 85.871094 223.871094 83.65625 C 223.648438 83.558594 223.417969 83.46875 223.195312 83.371094 C 222.300781 85.644531 221.40625 87.910156 220.332031 90.640625 Z M 153.3125 109.9375 C 151.734375 109.40625 150.191406 108.882812 148.492188 108.3125 C 150.378906 110.855469 151.546875 111.234375 153.3125 109.9375 Z M 156.144531 102.863281 C 156.011719 102.921875 155.882812 102.980469 155.746094 103.042969 C 156.105469 104.71875 156.472656 106.402344 156.871094 108.269531 C 157.273438 108.003906 157.914062 107.6875 157.878906 107.597656 C 157.355469 106 156.738281 104.4375 156.144531 102.863281 Z M 191.582031 77.324219 C 191.847656 77.34375 192.113281 77.359375 192.378906 77.378906 C 192.683594 75.695312 192.988281 74.011719 193.296875 72.324219 C 193.054688 72.285156 192.8125 72.242188 192.5625 72.203125 C 192.238281 73.910156 191.914062 75.621094 191.582031 77.324219 Z M 191.582031 77.324219 " fill-opacity="1" fill-rule="nonzero"/></g></g></g></g><g clip-path="url(#f8fc352da9)"><g clip-path="url(#3d80570dc4)"><g clip-path="url(#0367c282f7)"><g clip-path="url(#12908e6a9d)"><path fill="#ea95a6" d="M 191.578125 176.933594 C 190.457031 177.15625 189.335938 177.359375 188.222656 177.613281 C 187.714844 177.730469 187.222656 177.949219 186.722656 178.125 C 186.53125 177.402344 186.183594 176.675781 186.199219 175.957031 C 186.222656 175.144531 186.582031 174.339844 186.820312 173.414062 C 185.664062 174.0625 184.730469 174.59375 183.507812 175.277344 C 183.40625 173.339844 183.328125 171.949219 183.253906 170.566406 C 183.109375 170.558594 182.96875 170.550781 182.824219 170.542969 C 182.703125 172.101562 182.582031 173.65625 182.464844 175.175781 C 181.617188 175.167969 180.976562 175.160156 179.691406 175.152344 C 177.914062 173.5 175.3125 175.871094 172.679688 175.136719 C 171.796875 172.304688 174.160156 170 174.839844 167.339844 C 174.671875 167.253906 174.503906 167.171875 174.335938 167.085938 C 174.007812 167.507812 173.578125 167.890625 173.367188 168.367188 C 172.308594 170.710938 171.546875 173.222656 170.222656 175.394531 C 168.652344 177.964844 170.011719 180.480469 169.828125 183 C 169.675781 185 170.023438 187.046875 170.242188 189.0625 C 170.554688 192.003906 170.957031 194.929688 171.320312 197.867188 C 171.617188 197.847656 171.910156 197.832031 172.210938 197.8125 C 172.207031 196.261719 172.503906 194.632812 172.132812 193.171875 C 171.527344 190.804688 171.613281 188.582031 171.863281 186.164062 C 172.097656 183.882812 172.019531 181.671875 172.832031 179.410156 C 173.152344 178.507812 173.480469 177.761719 174.125 177.804688 C 174.996094 177.863281 175.898438 178.414062 176.65625 178.949219 C 177.316406 179.410156 177.789062 180.136719 178.652344 181.09375 C 178.640625 181.28125 178.585938 181.980469 178.503906 183.027344 C 179.472656 181.722656 180.242188 180.671875 181.019531 179.628906 C 181.378906 179.75 181.742188 179.871094 182.101562 180 C 182.003906 181.238281 181.894531 182.472656 181.816406 183.710938 C 181.53125 188.121094 181.207031 192.527344 181.03125 196.941406 C 181.011719 197.484375 181.796875 198.050781 182.207031 198.613281 C 182.355469 197.992188 182.765625 197.289062 182.609375 196.753906 C 181.492188 192.933594 182.871094 189.414062 183.78125 185.839844 C 183.871094 185.496094 184.042969 185.167969 184.09375 184.820312 C 184.515625 181.898438 185.046875 181.503906 188.023438 181.945312 C 186.328125 187.21875 186.265625 198.199219 187.714844 199.820312 C 188.117188 194.617188 188.507812 189.199219 188.96875 183.789062 C 189.074219 182.539062 189.15625 181.039062 190.941406 181.636719 C 191.398438 184.433594 191.753906 187.035156 192.273438 189.613281 C 192.566406 191.070312 192.886719 192.261719 190.691406 191.972656 C 190.414062 191.933594 190.074219 192.308594 189.511719 192.636719 C 189.898438 192.996094 190.199219 193.277344 190.601562 193.652344 C 190.226562 194.132812 189.796875 194.667969 189.316406 195.277344 C 189.777344 195.902344 190.191406 196.476562 190.933594 197.492188 C 191.257812 196.800781 191.527344 196.21875 191.804688 195.632812 C 192.019531 195.726562 192.238281 195.828125 192.453125 195.921875 C 192.984375 197.367188 193.515625 198.816406 194.046875 200.261719 C 194.289062 200.203125 194.53125 200.140625 194.773438 200.082031 C 194.691406 198.957031 194.667969 197.816406 194.5 196.703125 C 194.234375 195.027344 193.453125 193.324219 193.636719 191.714844 C 193.980469 188.628906 194.214844 185.597656 193.789062 182.511719 C 193.75 182.214844 194.597656 181.835938 194.964844 181.433594 C 195.277344 181.09375 195.492188 180.65625 195.511719 180.632812 C 196.675781 180.363281 197.921875 180.453125 198.480469 179.871094 C 199.683594 178.621094 200.484375 179.472656 200.859375 180.273438 C 201.46875 181.542969 201.957031 183.027344 201.898438 184.402344 C 201.867188 185.210938 200.683594 185.96875 200.007812 186.757812 C 202.382812 187.015625 201.414062 189.476562 202.289062 191.09375 C 202.511719 188.21875 203.113281 185.300781 202.824219 182.480469 C 202.636719 180.632812 202.183594 179.398438 204.644531 179.277344 C 204.347656 178.597656 204.121094 178.078125 203.890625 177.5625 C 203.980469 177.492188 204.070312 177.417969 204.15625 177.347656 C 204.707031 177.792969 205.265625 178.238281 206.015625 178.847656 C 206.265625 177.671875 206.460938 176.730469 206.742188 175.414062 C 205.371094 175.308594 204.019531 175.199219 202.671875 175.105469 C 202.550781 175.097656 202.386719 175.25 202.3125 175.207031 C 201.882812 174.964844 201.46875 174.6875 201.050781 174.425781 C 201.070312 175.011719 201.09375 175.597656 201.113281 176.289062 C 199.789062 176.453125 198.375 176.628906 196.789062 176.820312 C 197.089844 177.355469 197.3125 177.753906 197.871094 178.753906 C 196.929688 178.433594 196.449219 178.09375 196.070312 178.183594 C 195.484375 178.328125 194.972656 178.769531 194.101562 179.273438 C 194.292969 172.53125 191.546875 166.03125 194.351562 159.214844 C 194.640625 158.917969 195.242188 158.304688 195.894531 157.636719 C 196.066406 157.738281 196.464844 157.980469 196.96875 158.28125 C 196.511719 156.882812 196.109375 155.652344 195.671875 154.296875 C 196.390625 154.046875 197.027344 153.820312 197.835938 153.535156 C 197.472656 152.714844 197.164062 152.023438 196.957031 151.546875 C 198.984375 149.070312 200.917969 146.660156 202.90625 144.296875 C 205.363281 141.386719 207.984375 138.867188 211.53125 137.035156 C 213.832031 135.84375 216.417969 135.316406 218.402344 134.089844 C 221.695312 132.042969 224.929688 133.242188 227.585938 132.667969 C 228.285156 132.070312 228.914062 131.386719 229.03125 131.464844 C 230.996094 132.800781 232.863281 131.21875 234.785156 131.273438 C 237.164062 131.34375 239.695312 131.523438 241.785156 129.480469 C 242.71875 128.566406 244.46875 128.503906 246.183594 127.945312 C 246.246094 128.0625 246.507812 128.570312 246.765625 129.0625 C 248.59375 128.511719 250.234375 127.746094 250.53125 125.039062 C 251.554688 125.480469 252.585938 125.925781 253.644531 126.390625 C 255.824219 123.9375 258.402344 122.324219 262.136719 122.746094 C 263.886719 122.945312 265.761719 122.136719 267.566406 121.734375 C 269.085938 121.402344 270.59375 121.023438 272.097656 120.625 C 274.738281 119.933594 276.097656 121.988281 277.796875 123.394531 C 278.023438 123 278.1875 122.714844 278.351562 122.4375 C 279.855469 122.691406 282.683594 127.394531 282.398438 128.917969 C 281.773438 132.273438 279.910156 134.636719 277.160156 136.605469 C 275.429688 137.847656 274.234375 139.824219 272.566406 141.183594 C 269.679688 143.546875 268.53125 146.914062 266.898438 150.046875 C 265.46875 152.792969 263.71875 155.371094 262.210938 158.070312 C 260.761719 160.667969 259.585938 163.421875 258.023438 165.945312 C 255.730469 169.65625 253.296875 173.285156 250.707031 176.796875 C 249.90625 177.890625 248.375 178.414062 247.25 179.292969 C 245.660156 180.53125 243.863281 181.636719 242.640625 183.1875 C 239.636719 187.003906 235.78125 189.582031 231.574219 191.777344 C 231.203125 191.96875 230.71875 192.214844 230.597656 192.550781 C 229.820312 194.664062 228.265625 195.597656 226.191406 196.378906 C 223.605469 197.351562 221.296875 199.054688 218.808594 200.3125 C 217.308594 201.070312 215.722656 201.730469 214.105469 202.175781 C 210.417969 203.183594 206.660156 203.929688 202.988281 204.976562 C 200.570312 205.664062 198.300781 206.945312 195.863281 207.488281 C 193.53125 208.011719 191.367188 209.457031 188.636719 208.476562 C 187.339844 208.015625 185.546875 208.804688 184.023438 209.191406 C 182.960938 209.46875 181.5625 208.3125 180.792969 209.945312 C 180.75 210.035156 180.089844 209.9375 179.78125 209.785156 C 178.238281 209.035156 176.449219 209.609375 175.058594 209.195312 C 173.03125 208.601562 170.855469 210.617188 169.121094 208.605469 C 165.910156 209.207031 162.898438 208.230469 159.863281 207.449219 C 158.039062 206.984375 156.195312 206.570312 154.066406 206.058594 C 153.808594 205.242188 152.78125 204.652344 151.429688 204.753906 C 150.019531 204.871094 148.738281 204.949219 147.867188 203.488281 C 147.652344 203.128906 146.976562 202.734375 146.609375 202.8125 C 143.507812 203.484375 143.675781 200.976562 142.726562 199.210938 C 142.695312 200.195312 142.664062 201.175781 142.636719 201.964844 C 140.675781 200.996094 138.667969 200.003906 136.65625 199.007812 C 136.820312 195.8125 133.347656 196.679688 132.101562 194.917969 C 130.792969 193.070312 128.964844 191.59375 127.347656 189.941406 C 123.515625 189.910156 123.359375 186.195312 121.265625 184.101562 C 121.789062 185.8125 122.320312 187.523438 122.847656 189.234375 C 122.773438 189.328125 122.691406 189.421875 122.617188 189.519531 C 121.546875 188.339844 120.015625 187.3125 119.554688 185.933594 C 119.140625 184.679688 118.453125 184.539062 117.585938 184.113281 C 116.21875 183.453125 114.921875 182.640625 113.789062 181.433594 C 113.042969 181.605469 112.300781 181.777344 111.128906 182.050781 C 112.066406 178.191406 108.289062 176.753906 107.785156 173.257812 C 106.652344 174.484375 105.914062 175.292969 105.363281 175.894531 C 106.710938 176.746094 108.054688 177.59375 109.53125 178.53125 C 109.050781 179.011719 108.808594 179.292969 108.78125 179.273438 C 107.585938 178.464844 106.007812 178.589844 104.898438 177.953125 C 103.632812 177.226562 102.660156 175.820312 101.828125 174.535156 C 100.4375 172.394531 102.511719 170.828125 103.066406 169.027344 C 103.644531 167.132812 104.527344 165.335938 105.253906 163.488281 C 105.3125 163.34375 105.1875 163.136719 105.167969 163.039062 C 104.027344 165.164062 102.730469 167.21875 101.792969 169.429688 C 101.042969 171.1875 99.132812 172.542969 99.707031 174.855469 C 99.722656 174.914062 98.320312 175.324219 97.78125 175.5 C 97.316406 174.554688 97 173.917969 96.6875 173.285156 C 96.265625 173.5625 95.835938 173.84375 95.578125 174.011719 C 95.210938 173.46875 94.761719 172.804688 94.277344 172.09375 C 97.523438 172.625 96.125 169.097656 98.265625 167.8125 C 96.851562 167.308594 95.886719 166.75 94.921875 166.738281 C 94.527344 166.730469 94.117188 167.925781 93.726562 168.582031 C 93.652344 168.703125 93.636719 168.859375 93.589844 168.996094 C 93.296875 169.867188 93 170.742188 92.703125 171.609375 C 92.492188 171.628906 92.277344 171.644531 92.066406 171.664062 C 91.359375 167.953125 90.65625 164.238281 89.933594 160.421875 C 91.972656 160.742188 91.847656 160.785156 92.339844 162.230469 C 92.882812 163.8125 93.578125 165.40625 95.894531 165.539062 C 95.710938 164.457031 95.433594 163.417969 95.417969 162.371094 C 95.410156 161.945312 95.96875 161.511719 96.445312 160.839844 C 96.453125 160.847656 96.0625 160.488281 95.664062 160.117188 C 96.902344 159.300781 98.050781 158.546875 99.125 157.84375 C 98.855469 158.878906 98.347656 159.738281 98.53125 160.394531 C 98.878906 161.652344 99.914062 160.628906 100.539062 160.75 C 102.496094 161.125 103.09375 159.804688 103.839844 158.605469 C 104.484375 158.992188 105.003906 159.296875 105.621094 159.664062 C 105.40625 160.355469 105.191406 161.070312 104.96875 161.789062 C 104.816406 161.574219 104.667969 161.355469 104.515625 161.140625 C 105.488281 160.273438 106.453125 159.40625 107.421875 158.535156 C 107.691406 158.78125 107.953125 159.027344 108.222656 159.269531 C 107.953125 159.152344 107.6875 159.035156 107.414062 158.917969 C 107.378906 158.757812 107.347656 158.605469 107.316406 158.445312 C 109.632812 158.054688 111.949219 157.65625 114.375 157.246094 C 114.203125 157.5625 113.964844 158 113.730469 158.4375 C 113.835938 158.609375 113.9375 158.777344 114.042969 158.949219 C 114.574219 158.664062 115.105469 158.386719 115.636719 158.101562 C 115.566406 157.992188 115.496094 157.886719 115.417969 157.777344 C 119.75 156.628906 124.082031 155.484375 128.484375 154.316406 C 128.390625 153.957031 128.28125 153.554688 128.148438 153.035156 C 129.613281 153.148438 131.039062 153.515625 132.390625 153.308594 C 134.703125 152.945312 137.039062 152.410156 139.234375 151.59375 C 140.910156 150.976562 142.289062 149.488281 143.976562 148.992188 C 145.464844 148.550781 147.199219 148.941406 148.824219 148.988281 C 149.148438 149 149.605469 149.265625 149.773438 149.128906 C 152.117188 147.199219 155.171875 148.902344 157.621094 147.5625 C 157.746094 147.496094 158.070312 147.800781 158.515625 148.0625 C 157.761719 148.40625 157.222656 148.660156 156.636719 148.929688 C 158.476562 150.238281 161.148438 150.273438 162.546875 149.035156 C 164.414062 149.679688 166.371094 150.167969 168.140625 151.039062 C 169.539062 151.722656 170.648438 152.980469 172.007812 153.78125 C 172.542969 154.097656 173.636719 154.171875 174.066406 153.832031 C 177.695312 150.960938 180.863281 153.304688 184.113281 154.597656 C 185.136719 155.007812 186.347656 155.425781 186.980469 156.230469 C 188.117188 157.667969 188.863281 159.414062 189.8125 161 C 190.003906 161.328125 190.375 161.550781 190.722656 161.871094 C 190.09375 162.144531 189.59375 162.355469 189.390625 162.441406 C 189.90625 163.292969 190.644531 163.992188 190.765625 164.789062 C 191.390625 168.878906 191.855469 172.992188 192.378906 177.097656 C 192.125 177.035156 191.851562 176.988281 191.578125 176.933594 Z M 164.402344 165.261719 C 163.960938 165.191406 163.515625 165.121094 163.074219 165.050781 C 162.597656 166.675781 162.050781 168.289062 161.648438 169.933594 C 160.65625 174.050781 159.542969 178.152344 158.855469 182.324219 C 158.308594 185.601562 158.144531 188.980469 158.171875 192.308594 C 158.183594 193.941406 157.503906 196.046875 159.613281 197.296875 C 159.605469 196.441406 159.527344 195.710938 159.613281 195 C 159.847656 193.019531 160.214844 191.054688 160.421875 189.070312 C 160.53125 187.976562 160.25 186.820312 160.4375 185.746094 C 161.074219 182.03125 161.800781 178.332031 162.582031 174.644531 C 163.007812 172.628906 163.6875 170.667969 164.121094 168.648438 C 164.351562 167.542969 164.316406 166.394531 164.402344 165.261719 Z M 221.765625 150.957031 C 221.484375 151.128906 221.203125 151.300781 220.917969 151.46875 C 228.917969 158.421875 232.660156 167.269531 232.980469 177.710938 C 233.433594 177.054688 233.703125 176.453125 233.664062 175.875 C 233.402344 172.066406 233 168.269531 232.804688 164.460938 C 232.726562 162.953125 231.914062 162.054688 230.988281 161.074219 C 229.753906 159.769531 228.703125 158.296875 227.496094 156.972656 C 225.621094 154.929688 223.679688 152.953125 221.765625 150.957031 Z M 206.296875 172.871094 C 207.867188 175.3125 209.859375 178.40625 211.871094 181.535156 C 213.914062 179.042969 209.332031 176.542969 211.511719 174.191406 C 210.90625 173.578125 209.90625 172.789062 209.996094 172.632812 C 210.539062 171.703125 211.328125 170.914062 212.199219 169.886719 C 211.285156 170.0625 210.453125 170.226562 209.648438 170.386719 C 208.714844 169.074219 207.71875 167.660156 206.722656 166.253906 C 206.554688 166.339844 206.386719 166.425781 206.222656 166.511719 C 206.425781 167.527344 206.761719 168.539062 206.792969 169.5625 C 206.824219 170.488281 206.527344 171.421875 206.296875 172.871094 Z M 142.070312 196.210938 C 142.496094 196.230469 142.925781 196.246094 143.351562 196.261719 C 143.292969 195.210938 143.300781 194.152344 143.144531 193.113281 C 143.042969 192.414062 142.550781 191.757812 142.503906 191.066406 C 142.152344 185.960938 144.050781 181.410156 146.324219 177.054688 C 147.476562 174.851562 147.78125 175.015625 145.863281 173.164062 C 143.167969 180.714844 139.808594 188.03125 142.070312 196.210938 Z M 212.574219 158.355469 C 212.832031 156.914062 213.074219 155.507812 213.390625 153.746094 C 211.371094 154.039062 209.707031 154.4375 208.03125 154.484375 C 206.324219 154.53125 206.617188 155.835938 206.34375 156.757812 C 206.148438 157.4375 206.203125 158.191406 206.109375 159.410156 C 206.046875 159.328125 206.679688 159.785156 206.628906 160.144531 C 206.402344 161.769531 207.558594 161.015625 208.15625 161.046875 C 208.269531 161.054688 208.339844 160.164062 208.585938 159.796875 C 208.941406 159.273438 209.363281 158.59375 209.886719 158.453125 C 210.730469 158.210938 211.679688 158.363281 212.574219 158.355469 Z M 213.585938 170.359375 C 214.480469 169.953125 215.507812 169.707031 216.242188 169.109375 C 218.128906 167.5625 219.910156 166.820312 221.820312 168.996094 C 221.847656 169.03125 222.0625 168.894531 222.1875 168.835938 C 221.90625 166.027344 220.050781 162.816406 218.898438 163.394531 C 219.023438 163.871094 219.152344 164.371094 219.292969 164.917969 C 216.75 164.722656 214.429688 166.679688 213.585938 170.359375 Z M 235.234375 150.847656 C 237.867188 149.871094 239.273438 151.042969 240.457031 153.125 C 241.4375 154.847656 242.746094 156.378906 243.820312 157.875 C 243.636719 154.121094 238.878906 148.242188 234.75 146.800781 C 233.136719 148.328125 237.800781 148.976562 235.234375 150.847656 Z M 227.265625 146.929688 C 225.144531 145.128906 224.742188 145.113281 222.882812 146.957031 C 222.382812 147.453125 222.203125 148.273438 221.882812 148.945312 C 222.566406 149.191406 223.234375 149.546875 223.9375 149.660156 C 224.71875 149.78125 225.769531 149.863281 224.882812 148.5 C 225.101562 148.410156 225.351562 148.355469 225.542969 148.21875 C 226.109375 147.820312 226.65625 147.390625 227.265625 146.929688 Z M 268.773438 131.53125 C 267.894531 136.746094 267.015625 141.964844 266.109375 147.335938 C 268.300781 142.195312 269.285156 136.992188 268.773438 131.53125 Z M 139.15625 193.019531 C 138.796875 191.746094 138.675781 190.789062 138.246094 190.003906 C 137.9375 189.429688 137.210938 189.074219 136.675781 188.625 C 136.4375 189.097656 135.949219 189.605469 136.003906 190.042969 C 136.160156 191.316406 136.492188 192.578125 136.878906 193.804688 C 136.929688 193.980469 137.777344 194.105469 138.109375 193.941406 C 138.609375 193.703125 138.976562 193.195312 139.15625 193.019531 Z M 133.429688 186.089844 C 133.089844 186.136719 132.746094 186.183594 132.402344 186.230469 C 132.667969 188.535156 132.929688 190.835938 133.195312 193.140625 C 133.515625 193.105469 133.832031 193.066406 134.152344 193.03125 C 133.910156 190.714844 133.671875 188.402344 133.429688 186.089844 Z M 215.703125 144.199219 C 215.46875 144.457031 215.242188 144.71875 215.007812 144.976562 C 216.386719 146.183594 217.765625 147.386719 219.144531 148.59375 C 219.375 148.285156 219.601562 147.972656 219.71875 147.820312 C 218.277344 146.519531 216.988281 145.359375 215.703125 144.199219 Z M 199.222656 154.191406 C 199 154.539062 198.785156 154.894531 198.566406 155.246094 C 199.839844 155.984375 201.121094 156.726562 202.394531 157.464844 C 202.582031 157.164062 202.765625 156.867188 202.949219 156.570312 C 201.707031 155.777344 200.464844 154.984375 199.222656 154.191406 Z M 128.515625 188.621094 C 129.328125 189.921875 129.941406 190.898438 130.558594 191.886719 C 130.816406 191.683594 131.261719 191.515625 131.300781 191.28125 C 131.550781 189.628906 130.605469 188.929688 128.515625 188.621094 Z M 128.515625 188.621094 " fill-opacity="1" fill-rule="nonzero"/></g></g></g></g><g fill="#000000" fill-opacity="1"><g transform="translate(20.757706, 259.578146)"><g><path d="M 44.03125 0 L 43.984375 -29.78125 L 29.203125 -4.96875 L 26.515625 -4.96875 L 11.734375 -29.609375 L 11.734375 0 L 6.125 0 L 6.125 -40.890625 L 10.921875 -40.890625 L 27.984375 -12.15625 L 44.796875 -40.890625 L 49.59375 -40.890625 L 49.640625 0 Z M 44.03125 0 "/></g></g></g><g fill="#000000" fill-opacity="1"><g transform="translate(77.87913, 259.578146)"><g><path d="M 32.1875 -10.21875 L 10.453125 -10.21875 L 5.953125 0 L -0.0625 0 L 18.453125 -40.890625 L 24.234375 -40.890625 L 42.8125 0 L 36.671875 0 Z M 30.140625 -14.890625 L 21.3125 -34.921875 L 12.5 -14.890625 Z M 30.140625 -14.890625 "/></g></g></g><g fill="#000000" fill-opacity="1"><g transform="translate(121.975976, 259.578146)"><g><path d="M 19.453125 -18.171875 L 11.96875 -10.578125 L 11.96875 0 L 6.125 0 L 6.125 -40.890625 L 11.96875 -40.890625 L 11.96875 -18.046875 L 34.171875 -40.890625 L 40.828125 -40.890625 L 23.359375 -22.484375 L 41.9375 0 L 35.109375 0 Z M 19.453125 -18.171875 "/></g></g></g><g fill="#000000" fill-opacity="1"><g transform="translate(165.313536, 259.578146)"><g><path d="M 6.125 -40.890625 L 11.96875 -40.890625 L 11.96875 -5.078125 L 34.109375 -5.078125 L 34.109375 0 L 6.125 0 Z M 6.125 -40.890625 "/></g></g></g><g fill="#000000" fill-opacity="1"><g transform="translate(201.350338, 259.578146)"><g><path d="M 35.796875 -5.078125 L 35.796875 0 L 6.125 0 L 6.125 -40.890625 L 34.984375 -40.890625 L 34.984375 -35.796875 L 11.96875 -35.796875 L 11.96875 -23.25 L 32.46875 -23.25 L 32.46875 -18.28125 L 11.96875 -18.28125 L 11.96875 -5.078125 Z M 35.796875 -5.078125 "/></g></g></g><g fill="#000000" fill-opacity="1"><g transform="translate(241.826005, 259.578146)"><g><path d="M 41.640625 -40.890625 L 23.71875 0 L 17.9375 0 L -0.0625 -40.890625 L 6.25 -40.890625 L 20.96875 -7.296875 L 35.796875 -40.890625 Z M 41.640625 -40.890625 "/></g></g></g><g fill="#000000" fill-opacity="1"><g transform="translate(284.754736, 259.578146)"><g><path d="M 6.125 -40.890625 L 11.96875 -40.890625 L 11.96875 0 L 6.125 0 Z M 6.125 -40.890625 "/></g></g></g><g fill="#000000" fill-opacity="1"><g transform="translate(304.204175, 259.578146)"><g><path d="M 32.1875 -10.21875 L 10.453125 -10.21875 L 5.953125 0 L -0.0625 0 L 18.453125 -40.890625 L 24.234375 -40.890625 L 42.8125 0 L 36.671875 0 Z M 30.140625 -14.890625 L 21.3125 -34.921875 L 12.5 -14.890625 Z M 30.140625 -14.890625 "/></g></g></g><g fill="#000000" fill-opacity="1"><g transform="translate(65.219846, 293.68999)"><g><path d="M 17.109375 -17.125 L 17.109375 0 L 15.609375 0 L 4.59375 -13.890625 L 4.59375 0 L 2.796875 0 L 2.796875 -17.125 L 4.28125 -17.125 L 15.3125 -3.234375 L 15.3125 -17.125 Z M 17.109375 -17.125 "/></g></g></g><g fill="#000000" fill-opacity="1"><g transform="translate(85.666211, 293.68999)"><g><path d="M 10.28125 0.140625 C 8.582031 0.140625 7.039062 -0.234375 5.65625 -0.984375 C 4.28125 -1.742188 3.203125 -2.785156 2.421875 -4.109375 C 1.648438 -5.429688 1.265625 -6.914062 1.265625 -8.5625 C 1.265625 -10.207031 1.648438 -11.691406 2.421875 -13.015625 C 3.203125 -14.335938 4.28125 -15.378906 5.65625 -16.140625 C 7.039062 -16.898438 8.582031 -17.28125 10.28125 -17.28125 C 11.976562 -17.28125 13.503906 -16.90625 14.859375 -16.15625 C 16.222656 -15.40625 17.296875 -14.363281 18.078125 -13.03125 C 18.859375 -11.695312 19.25 -10.207031 19.25 -8.5625 C 19.25 -6.914062 18.859375 -5.425781 18.078125 -4.09375 C 17.296875 -2.769531 16.222656 -1.734375 14.859375 -0.984375 C 13.503906 -0.234375 11.976562 0.140625 10.28125 0.140625 Z M 10.28125 -1.46875 C 11.632812 -1.46875 12.859375 -1.769531 13.953125 -2.375 C 15.046875 -2.988281 15.898438 -3.835938 16.515625 -4.921875 C 17.140625 -6.015625 17.453125 -7.226562 17.453125 -8.5625 C 17.453125 -9.90625 17.140625 -11.117188 16.515625 -12.203125 C 15.898438 -13.285156 15.046875 -14.128906 13.953125 -14.734375 C 12.859375 -15.347656 11.632812 -15.65625 10.28125 -15.65625 C 8.925781 -15.65625 7.695312 -15.347656 6.59375 -14.734375 C 5.488281 -14.128906 4.625 -13.285156 4 -12.203125 C 3.375 -11.117188 3.0625 -9.90625 3.0625 -8.5625 C 3.0625 -7.226562 3.375 -6.015625 4 -4.921875 C 4.625 -3.835938 5.488281 -2.988281 6.59375 -2.375 C 7.695312 -1.769531 8.925781 -1.46875 10.28125 -1.46875 Z M 10.28125 -1.46875 "/></g></g></g><g fill="#000000" fill-opacity="1"><g transform="translate(106.748466, 293.68999)"><g/></g></g><g fill="#000000" fill-opacity="1"><g transform="translate(113.718977, 293.68999)"><g><path d="M 13.578125 -8.828125 C 14.703125 -8.585938 15.570312 -8.101562 16.1875 -7.375 C 16.800781 -6.644531 17.109375 -5.710938 17.109375 -4.578125 C 17.109375 -3.109375 16.5625 -1.976562 15.46875 -1.1875 C 14.382812 -0.394531 12.785156 0 10.671875 0 L 2.796875 0 L 2.796875 -17.125 L 10.171875 -17.125 C 12.085938 -17.125 13.570312 -16.738281 14.625 -15.96875 C 15.675781 -15.207031 16.203125 -14.125 16.203125 -12.71875 C 16.203125 -11.769531 15.96875 -10.96875 15.5 -10.3125 C 15.03125 -9.65625 14.390625 -9.160156 13.578125 -8.828125 Z M 4.59375 -15.640625 L 4.59375 -9.421875 L 10.0625 -9.421875 C 11.445312 -9.421875 12.515625 -9.6875 13.265625 -10.21875 C 14.015625 -10.75 14.390625 -11.519531 14.390625 -12.53125 C 14.390625 -13.539062 14.015625 -14.3125 13.265625 -14.84375 C 12.515625 -15.375 11.445312 -15.640625 10.0625 -15.640625 Z M 10.640625 -1.5 C 12.171875 -1.5 13.328125 -1.757812 14.109375 -2.28125 C 14.898438 -2.800781 15.296875 -3.613281 15.296875 -4.71875 C 15.296875 -6.851562 13.742188 -7.921875 10.640625 -7.921875 L 4.59375 -7.921875 L 4.59375 -1.5 Z M 10.640625 -1.5 "/></g></g></g><g fill="#000000" fill-opacity="1"><g transform="translate(132.722382, 293.68999)"><g><path d="M 14.90625 -1.5625 L 14.90625 0 L 2.796875 0 L 2.796875 -17.125 L 14.53125 -17.125 L 14.53125 -15.5625 L 4.59375 -15.5625 L 4.59375 -9.46875 L 13.453125 -9.46875 L 13.453125 -7.921875 L 4.59375 -7.921875 L 4.59375 -1.5625 Z M 14.90625 -1.5625 "/></g></g></g><g fill="#000000" fill-opacity="1"><g transform="translate(149.646934, 293.68999)"><g><path d="M 13.53125 -4.578125 L 3.984375 -4.578125 L 1.9375 0 L 0.046875 0 L 7.875 -17.125 L 9.671875 -17.125 L 17.5 0 L 15.59375 0 Z M 12.875 -6.046875 L 8.765625 -15.25 L 4.65625 -6.046875 Z M 12.875 -6.046875 "/></g></g></g><g fill="#000000" fill-opacity="1"><g transform="translate(167.74542, 293.68999)"><g><path d="M 9.6875 0.140625 C 7.46875 0.140625 5.738281 -0.492188 4.5 -1.765625 C 3.257812 -3.035156 2.640625 -4.882812 2.640625 -7.3125 L 2.640625 -17.125 L 4.453125 -17.125 L 4.453125 -7.390625 C 4.453125 -5.398438 4.898438 -3.914062 5.796875 -2.9375 C 6.691406 -1.957031 7.988281 -1.46875 9.6875 -1.46875 C 11.40625 -1.46875 12.710938 -1.957031 13.609375 -2.9375 C 14.503906 -3.914062 14.953125 -5.398438 14.953125 -7.390625 L 14.953125 -17.125 L 16.71875 -17.125 L 16.71875 -7.3125 C 16.71875 -4.882812 16.097656 -3.035156 14.859375 -1.765625 C 13.628906 -0.492188 11.90625 0.140625 9.6875 0.140625 Z M 9.6875 0.140625 "/></g></g></g><g fill="#000000" fill-opacity="1"><g transform="translate(187.678188, 293.68999)"><g><path d="M 6.109375 -15.5625 L 0.09375 -15.5625 L 0.09375 -17.125 L 13.953125 -17.125 L 13.953125 -15.5625 L 7.921875 -15.5625 L 7.921875 0 L 6.109375 0 Z M 6.109375 -15.5625 "/></g></g></g><g fill="#000000" fill-opacity="1"><g transform="translate(202.279315, 293.68999)"><g><path d="M 8.65625 -5.921875 L 8.65625 0 L 6.875 0 L 6.875 -5.921875 L 0.03125 -17.125 L 1.953125 -17.125 L 7.828125 -7.515625 L 13.703125 -17.125 L 15.515625 -17.125 Z M 8.65625 -5.921875 "/></g></g></g><g fill="#000000" fill-opacity="1"><g transform="translate(218.372328, 293.68999)"><g/></g></g><g fill="#000000" fill-opacity="1"><g transform="translate(225.342844, 293.68999)"><g><path d="M 2.796875 -17.125 L 4.59375 -17.125 L 4.59375 -1.5625 L 14.1875 -1.5625 L 14.1875 0 L 2.796875 0 Z M 2.796875 -17.125 "/></g></g></g><g fill="#000000" fill-opacity="1"><g transform="translate(240.310822, 293.68999)"><g><path d="M 2.796875 -17.125 L 4.59375 -17.125 L 4.59375 0 L 2.796875 0 Z M 2.796875 -17.125 "/></g></g></g><g fill="#000000" fill-opacity="1"><g transform="translate(248.259613, 293.68999)"><g><path d="M 20.578125 -17.125 L 20.578125 0 L 18.84375 0 L 18.84375 -13.703125 L 12.109375 -2.171875 L 11.25 -2.171875 L 4.53125 -13.625 L 4.53125 0 L 2.796875 0 L 2.796875 -17.125 L 4.28125 -17.125 L 11.71875 -4.421875 L 19.078125 -17.125 Z M 20.578125 -17.125 "/></g></g></g><g fill="#000000" fill-opacity="1"><g transform="translate(272.178885, 293.68999)"><g><path d="M 2.796875 -17.125 L 4.59375 -17.125 L 4.59375 0 L 2.796875 0 Z M 2.796875 -17.125 "/></g></g></g><g fill="#000000" fill-opacity="1"><g transform="translate(280.127676, 293.68999)"><g><path d="M 6.109375 -15.5625 L 0.09375 -15.5625 L 0.09375 -17.125 L 13.953125 -17.125 L 13.953125 -15.5625 L 7.921875 -15.5625 L 7.921875 0 L 6.109375 0 Z M 6.109375 -15.5625 "/></g></g></g><g fill="#000000" fill-opacity="1"><g transform="translate(294.728803, 293.68999)"><g><path d="M 7.515625 0.140625 C 6.242188 0.140625 5.023438 -0.0625 3.859375 -0.46875 C 2.691406 -0.875 1.789062 -1.410156 1.15625 -2.078125 L 1.859375 -3.46875 C 2.484375 -2.851562 3.304688 -2.351562 4.328125 -1.96875 C 5.359375 -1.582031 6.421875 -1.390625 7.515625 -1.390625 C 9.046875 -1.390625 10.191406 -1.671875 10.953125 -2.234375 C 11.722656 -2.796875 12.109375 -3.523438 12.109375 -4.421875 C 12.109375 -5.109375 11.898438 -5.65625 11.484375 -6.0625 C 11.066406 -6.476562 10.554688 -6.796875 9.953125 -7.015625 C 9.347656 -7.234375 8.507812 -7.472656 7.4375 -7.734375 C 6.144531 -8.054688 5.113281 -8.367188 4.34375 -8.671875 C 3.582031 -8.972656 2.925781 -9.429688 2.375 -10.046875 C 1.832031 -10.671875 1.5625 -11.515625 1.5625 -12.578125 C 1.5625 -13.441406 1.789062 -14.226562 2.25 -14.9375 C 2.707031 -15.644531 3.410156 -16.210938 4.359375 -16.640625 C 5.304688 -17.066406 6.476562 -17.28125 7.875 -17.28125 C 8.851562 -17.28125 9.8125 -17.144531 10.75 -16.875 C 11.6875 -16.601562 12.5 -16.234375 13.1875 -15.765625 L 12.578125 -14.3125 C 11.859375 -14.789062 11.085938 -15.144531 10.265625 -15.375 C 9.453125 -15.613281 8.65625 -15.734375 7.875 -15.734375 C 6.375 -15.734375 5.242188 -15.441406 4.484375 -14.859375 C 3.734375 -14.285156 3.359375 -13.539062 3.359375 -12.625 C 3.359375 -11.9375 3.5625 -11.382812 3.96875 -10.96875 C 4.382812 -10.550781 4.90625 -10.234375 5.53125 -10.015625 C 6.164062 -9.796875 7.015625 -9.554688 8.078125 -9.296875 C 9.328125 -8.984375 10.335938 -8.675781 11.109375 -8.375 C 11.890625 -8.070312 12.546875 -7.613281 13.078125 -7 C 13.617188 -6.394531 13.890625 -5.570312 13.890625 -4.53125 C 13.890625 -3.664062 13.65625 -2.875 13.1875 -2.15625 C 12.726562 -1.445312 12.015625 -0.882812 11.046875 -0.46875 C 10.085938 -0.0625 8.910156 0.140625 7.515625 0.140625 Z M 7.515625 0.140625 "/></g></g></g></svg>